<svg xmlns="http://www.w3.org/2000/svg" viewBox="0 0 512 512" role="img" aria-label="Humanity Retention Programme icon">
  <rect width="512" height="512" rx="96" fill="#09131f"/>
  <rect x="34" y="34" width="444" height="444" rx="80" fill="#102235" stroke="#ffd166" stroke-width="10"/>
  <circle cx="256" cy="242" r="136" fill="#1b2c42" stroke="#84dcc6" stroke-width="8"/>
  <path d="M126 250c42-40 74-40 98-12s60 24 83-12 58-42 82 0" fill="none" stroke="#f1e9d0" stroke-width="13" stroke-linecap="round"/>
  <path d="M152 314c42-20 83-16 123 8 36 22 71 21 105-2" fill="none" stroke="#f4a261" stroke-width="12" stroke-linecap="round"/>
  <path d="M179 153c34 16 74 20 113 9 23-7 43-6 61 3" fill="none" stroke="#90be6d" stroke-width="12" stroke-linecap="round"/>
  <circle cx="178" cy="214" r="16" fill="#e76f51"/>
  <circle cx="313" cy="287" r="12" fill="#ef476f"/>
  <circle cx="352" cy="207" r="10" fill="#ffd166"/>
  <g fill="none" stroke="#ffd166" stroke-width="14" stroke-linecap="round" stroke-linejoin="round">
    <path d="M256 92v56M256 364v56M92 256h56M364 256h56"/>
    <path d="M164 164l40 40M348 348l-40-40M348 164l-40 40M164 348l40-40" opacity=".55"/>
  </g>
  <text x="256" y="455" text-anchor="middle" font-family="monospace" font-size="42" font-weight="700" fill="#ffd166">HRP</text>
</svg>
